<svg id="Layer_1" data-name="Layer 1" xmlns="http://www.w3.org/2000/svg" viewBox="0 0 281.67 281.67"><defs><style>.cls-1{stroke:#000;}.cls-1,.cls-2,.cls-3{stroke-miterlimit:10;}.cls-2,.cls-5{fill:#fff;}.cls-2{stroke:#fff;}.cls-3,.cls-6{fill:#0000f6;}.cls-3{stroke:#0000f6;}.cls-4,.cls-5,.cls-6{font-size:65.56px;font-family:Bauhaus93, "Bauhaus 93";}</style></defs><rect class="cls-1" x="0.5" y="0.5" width="280.67" height="280.67" rx="55.94"/><rect class="cls-2" x="35.58" y="35.58" width="210.5" height="210.5" rx="45.84"/><path class="cls-3" d="M445.9,564.31H277.11a56.11,56.11,0,0,1-55.94-55.94V339.57c66.91,1.22,96.52,20.79,110.91,39.94,13.2,17.55,25.39,50.43,61.44,66a93.89,93.89,0,0,0,11.25,4c38.41,10.92,77-6.39,97.07-17.57v76.48A56.11,56.11,0,0,1,445.9,564.31Z" transform="translate(-220.67 -283.13)"/><circle class="cls-3" cx="136.31" cy="80.13" r="38.4"/><circle class="cls-1" cx="136.31" cy="148.92" r="34.92"/><circle class="cls-2" cx="136.31" cy="218.76" r="34.92"/><text class="cls-4" transform="translate(122.32 103.94)">L</text><text class="cls-5" transform="translate(110.37 166.1)">w</text><text class="cls-6" transform="translate(161.5 202.22) rotate(180)">w</text></svg>